@startuml
skinparam linetype ortho
left to right direction
skinparam nodesep 30
'title: FerryTix Class Diagram
skinparam monochrome true
scale 1.5

class Payment {
    'issuedBy: Union<null, VendingMachine>
    uuid: UUID
    issuedAt: DateTime
    amount: Integer
    'details: PaymentDetails
    'method: PaymentMethod
}

Payment "*" -- "1" VendingMachine

' TicketSale "1" -- "1" Payment

class MachineConfiguration {
    'forMachine: VendingMachine
    maxBicycles: Integer
    maxBicyclesTolerance: Integer
    maxPassengers: Integer
    maxPassengersTolerance: Integer
    'fares: [Fare]
}

MachineConfiguration "1" -- "1…*" VendingMachine
MachineConfiguration "*" -- "*" Fare

class Fare {
    ' ticketClass: TicketClass
    fare: Integer
}

enum MachineLocation {
    Bislich
    Xanten
}

class VendingMachine {
    uuid: UUID
    publicKey: PublicKey
    'location: MachineLocation
}

MachineLocation "1" -- "*" VendingMachine

class MachineStatus {
    vending: Boolean
    ' waiting: [WaitingPassenger]
    batteryCharge: float
    estimatedReceiptPaperFillLevel: float
    receiptPaperRollLength: float
    cpuTemperature: float
    'ticketsSoldToday:
    volumeOfSalesToday: integer
    saleCounter: integer
}

WaitingPassenger "*" - "1" MachineStatus

class WaitingPassenger {
    ticketClass: TicketClass
    waitingSince: DateTime
}

WaitingPassenger "*" -- "1" TicketClass

VendingMachine "1" - "1" MachineStatus

@enduml